<mxfile host="app.diagrams.net" agent="Mozilla/5.0 (Windows NT 10.0; Win64; x64) AppleWebKit/537.36 (KHTML, like Gecko) Chrome/135.0.0.0 Safari/537.36" version="26.2.12">
  <diagram name="Strona-1" id="1EZVHAHXE7xDf5-W1wZk">
    <mxGraphModel dx="1190" dy="659" grid="1" gridSize="10" guides="1" tooltips="1" connect="1" arrows="1" fold="1" page="1" pageScale="1" pageWidth="1169" pageHeight="1654" math="0" shadow="0">
      <root>
        <mxCell id="0" />
        <mxCell id="1" parent="0" />
        <mxCell id="YXGENoun8Vht93i-faF1-1" value="&lt;p style=&quot;margin: 4px 0px 0px; text-align: center; text-decoration: underline;&quot;&gt;&lt;b&gt;AN1:Klient&lt;/b&gt;&lt;/p&gt;&lt;hr size=&quot;1&quot; style=&quot;border-style:solid;&quot;&gt;&lt;p style=&quot;margin:0px;margin-left:8px;&quot;&gt;dataUr=06-01-1976&lt;br&gt;pesel=12345678901&lt;/p&gt;&lt;p style=&quot;margin:0px;margin-left:8px;&quot;&gt;imie=Adam&lt;/p&gt;&lt;p style=&quot;margin:0px;margin-left:8px;&quot;&gt;nazwisko=Nowak&lt;/p&gt;&lt;p style=&quot;margin:0px;margin-left:8px;&quot;&gt;eMail=adamnowak@mail.pl&lt;/p&gt;&lt;p style=&quot;margin:0px;margin-left:8px;&quot;&gt;haslo=anowak6791&lt;/p&gt;&lt;p style=&quot;margin:0px;margin-left:8px;&quot;&gt;login=Nowak1976&lt;/p&gt;" style="verticalAlign=top;align=left;overflow=fill;html=1;whiteSpace=wrap;" parent="1" vertex="1">
          <mxGeometry x="120" y="430" width="160" height="140" as="geometry" />
        </mxCell>
        <mxCell id="YXGENoun8Vht93i-faF1-2" value="&lt;p style=&quot;margin: 4px 0px 0px; text-align: center; text-decoration: underline;&quot;&gt;&lt;b&gt;MR4:Klient&lt;/b&gt;&lt;/p&gt;&lt;hr size=&quot;1&quot; style=&quot;border-style:solid;&quot;&gt;&lt;p style=&quot;margin:0px;margin-left:8px;&quot;&gt;dataUr=16-07-2000&lt;br&gt;pesel=10987654321&lt;/p&gt;&lt;p style=&quot;margin:0px;margin-left:8px;&quot;&gt;imie=Mariusz&lt;/p&gt;&lt;p style=&quot;margin:0px;margin-left:8px;&quot;&gt;Nazwisko=Ropiak&lt;/p&gt;&lt;p style=&quot;margin:0px;margin-left:8px;&quot;&gt;eMail=maropiak@mail.pl&lt;/p&gt;&lt;p style=&quot;margin:0px;margin-left:8px;&quot;&gt;haslo=mr123&lt;/p&gt;&lt;p style=&quot;margin:0px;margin-left:8px;&quot;&gt;login=mr123&lt;/p&gt;" style="verticalAlign=top;align=left;overflow=fill;html=1;whiteSpace=wrap;" parent="1" vertex="1">
          <mxGeometry x="120" y="610" width="160" height="140" as="geometry" />
        </mxCell>
        <mxCell id="YXGENoun8Vht93i-faF1-3" value="&lt;p style=&quot;margin: 4px 0px 0px; text-align: center; text-decoration: underline;&quot;&gt;&lt;b&gt;:ZakładBukmacherski&lt;/b&gt;&lt;/p&gt;&lt;hr size=&quot;1&quot; style=&quot;border-style:solid;&quot;&gt;&lt;p style=&quot;margin:0px;margin-left:8px;&quot;&gt;nazwa=&quot;Koszykówka Niemcy-Francja&quot;&lt;br&gt;rodzaj=&quot;Mecz&quot;&lt;/p&gt;&lt;p style=&quot;margin:0px;margin-left:8px;&quot;&gt;dataKoncaObstawiania=02-04-2025&lt;/p&gt;&lt;p style=&quot;margin:0px;margin-left:8px;&quot;&gt;obstawienia={AN1:{&quot;Francja&quot;:250.0}, JP1:{&quot;Niemcy&quot;:1000.0}}&lt;/p&gt;&lt;p style=&quot;margin:0px;margin-left:8px;&quot;&gt;czyZakonczony=True&lt;/p&gt;&lt;p style=&quot;margin:0px;margin-left:8px;&quot;&gt;idZakladu=kosz63714&lt;/p&gt;&lt;p style=&quot;margin:0px;margin-left:8px;&quot;&gt;wygrany=&quot;Niemcy&lt;/p&gt;" style="verticalAlign=top;align=left;overflow=fill;html=1;whiteSpace=wrap;" parent="1" vertex="1">
          <mxGeometry x="420" y="210" width="290" height="160" as="geometry" />
        </mxCell>
        <mxCell id="YXGENoun8Vht93i-faF1-4" value="&lt;p style=&quot;margin: 4px 0px 0px; text-align: center; text-decoration: underline;&quot;&gt;&lt;b&gt;:Kurs&lt;/b&gt;&lt;/p&gt;&lt;hr size=&quot;1&quot; style=&quot;border-style:solid;&quot;&gt;&lt;p style=&quot;margin:0px;margin-left:8px;&quot;&gt;nazwaZwyciezcy=&quot;Niemcy&quot;&lt;br&gt;aktualnyKurs=3.0&lt;/p&gt;" style="verticalAlign=top;align=left;overflow=fill;html=1;whiteSpace=wrap;" parent="1" vertex="1">
          <mxGeometry x="870" y="260" width="170" height="80" as="geometry" />
        </mxCell>
        <mxCell id="YXGENoun8Vht93i-faF1-5" value="&lt;p style=&quot;margin: 4px 0px 0px; text-align: center; text-decoration: underline;&quot;&gt;&lt;b&gt;:Kurs&lt;/b&gt;&lt;/p&gt;&lt;hr size=&quot;1&quot; style=&quot;border-style:solid;&quot;&gt;&lt;p style=&quot;margin:0px;margin-left:8px;&quot;&gt;nazwaZwyciezcy=&quot;Francja&quot;&lt;br&gt;aktualnyKurs=1.5&lt;/p&gt;" style="verticalAlign=top;align=left;overflow=fill;html=1;whiteSpace=wrap;" parent="1" vertex="1">
          <mxGeometry x="865" y="390" width="170" height="80" as="geometry" />
        </mxCell>
        <mxCell id="YXGENoun8Vht93i-faF1-12" value="" style="endArrow=none;html=1;rounded=0;entryX=0;entryY=0.5;entryDx=0;entryDy=0;exitX=1;exitY=0.5;exitDx=0;exitDy=0;" parent="1" source="YXGENoun8Vht93i-faF1-3" target="YXGENoun8Vht93i-faF1-4" edge="1">
          <mxGeometry width="50" height="50" relative="1" as="geometry">
            <mxPoint x="480" y="230" as="sourcePoint" />
            <mxPoint x="530" y="180" as="targetPoint" />
          </mxGeometry>
        </mxCell>
        <mxCell id="YXGENoun8Vht93i-faF1-13" value="" style="endArrow=none;html=1;rounded=0;entryX=0;entryY=0.5;entryDx=0;entryDy=0;exitX=1;exitY=1;exitDx=0;exitDy=0;" parent="1" source="YXGENoun8Vht93i-faF1-3" target="YXGENoun8Vht93i-faF1-5" edge="1">
          <mxGeometry width="50" height="50" relative="1" as="geometry">
            <mxPoint x="570" y="240" as="sourcePoint" />
            <mxPoint x="620" y="190" as="targetPoint" />
          </mxGeometry>
        </mxCell>
        <mxCell id="YXGENoun8Vht93i-faF1-14" value="&lt;p style=&quot;margin: 4px 0px 0px; text-align: center; text-decoration: underline;&quot;&gt;&lt;b&gt;:ZakładBukmacherski&lt;/b&gt;&lt;/p&gt;&lt;hr size=&quot;1&quot; style=&quot;border-style:solid;&quot;&gt;&lt;p style=&quot;margin:0px;margin-left:8px;&quot;&gt;nazwa=&quot;Bieg 200m Szwecja&quot;&lt;br&gt;rodzaj=&quot;Wyścig&quot;&lt;/p&gt;&lt;p style=&quot;margin:0px;margin-left:8px;&quot;&gt;dataKoncaObstawiania=12-06-2025&lt;/p&gt;&lt;p style=&quot;margin:0px;margin-left:8px;&quot;&gt;obstawienia={AN1:2000.0, JP1:500.0, MR4:100.0}&lt;/p&gt;&lt;p style=&quot;margin:0px;margin-left:8px;&quot;&gt;czyZakonczony=False&lt;/p&gt;&lt;p style=&quot;margin:0px;margin-left:8px;&quot;&gt;idZakladu=mar2632&lt;/p&gt;" style="verticalAlign=top;align=left;overflow=fill;html=1;whiteSpace=wrap;" parent="1" vertex="1">
          <mxGeometry x="410" y="600" width="300" height="120" as="geometry" />
        </mxCell>
        <mxCell id="YXGENoun8Vht93i-faF1-15" value="&lt;p style=&quot;margin: 4px 0px 0px; text-align: center; text-decoration: underline;&quot;&gt;&lt;b&gt;:Kurs&lt;/b&gt;&lt;/p&gt;&lt;hr size=&quot;1&quot; style=&quot;border-style:solid;&quot;&gt;&lt;p style=&quot;margin:0px;margin-left:8px;&quot;&gt;nazwaZwyciezcy=&quot;KowalskiJ&quot;&lt;br&gt;aktualnyKurs=5.3&lt;/p&gt;" style="verticalAlign=top;align=left;overflow=fill;html=1;whiteSpace=wrap;" parent="1" vertex="1">
          <mxGeometry x="180" y="790" width="180" height="80" as="geometry" />
        </mxCell>
        <mxCell id="YXGENoun8Vht93i-faF1-16" value="&lt;p style=&quot;margin: 4px 0px 0px; text-align: center; text-decoration: underline;&quot;&gt;&lt;b&gt;:Kurs&lt;/b&gt;&lt;/p&gt;&lt;hr size=&quot;1&quot; style=&quot;border-style:solid;&quot;&gt;&lt;p style=&quot;margin:0px;margin-left:8px;&quot;&gt;nazwaZwyciezcy=&quot;SmithA&quot;&lt;br&gt;aktualnyKurs=2.1&lt;/p&gt;" style="verticalAlign=top;align=left;overflow=fill;html=1;whiteSpace=wrap;" parent="1" vertex="1">
          <mxGeometry x="430" y="790" width="180" height="80" as="geometry" />
        </mxCell>
        <mxCell id="YXGENoun8Vht93i-faF1-17" value="&lt;p style=&quot;margin: 4px 0px 0px; text-align: center; text-decoration: underline;&quot;&gt;&lt;b&gt;:Kurs&lt;/b&gt;&lt;/p&gt;&lt;hr size=&quot;1&quot; style=&quot;border-style:solid;&quot;&gt;&lt;p style=&quot;margin:0px;margin-left:8px;&quot;&gt;nazwaZwyciezcy=&quot;BergM&quot;&lt;br&gt;aktualnyKurs=1.9&lt;/p&gt;" style="verticalAlign=top;align=left;overflow=fill;html=1;whiteSpace=wrap;" parent="1" vertex="1">
          <mxGeometry x="670" y="790" width="180" height="80" as="geometry" />
        </mxCell>
        <mxCell id="YXGENoun8Vht93i-faF1-18" value="&lt;p style=&quot;margin: 4px 0px 0px; text-align: center; text-decoration: underline;&quot;&gt;&lt;b&gt;:Kurs&lt;/b&gt;&lt;/p&gt;&lt;hr size=&quot;1&quot; style=&quot;border-style:solid;&quot;&gt;&lt;p style=&quot;margin:0px;margin-left:8px;&quot;&gt;nazwaZwyciezcy=&quot;VictorovichI&quot;&lt;br&gt;aktualnyKurs=4.1&lt;/p&gt;" style="verticalAlign=top;align=left;overflow=fill;html=1;whiteSpace=wrap;" parent="1" vertex="1">
          <mxGeometry x="230" y="920" width="180" height="80" as="geometry" />
        </mxCell>
        <mxCell id="YXGENoun8Vht93i-faF1-19" value="&lt;p style=&quot;margin: 4px 0px 0px; text-align: center; text-decoration: underline;&quot;&gt;&lt;b&gt;:Kurs&lt;/b&gt;&lt;/p&gt;&lt;hr size=&quot;1&quot; style=&quot;border-style:solid;&quot;&gt;&lt;p style=&quot;margin:0px;margin-left:8px;&quot;&gt;nazwaZwyciezcy=&quot;NewsonA&quot;&lt;br&gt;aktualnyKurs=1.6&lt;/p&gt;" style="verticalAlign=top;align=left;overflow=fill;html=1;whiteSpace=wrap;" parent="1" vertex="1">
          <mxGeometry x="630" y="930" width="180" height="80" as="geometry" />
        </mxCell>
        <mxCell id="YXGENoun8Vht93i-faF1-20" value="" style="endArrow=none;html=1;rounded=0;entryX=0;entryY=1;entryDx=0;entryDy=0;exitX=0.5;exitY=0;exitDx=0;exitDy=0;" parent="1" source="YXGENoun8Vht93i-faF1-15" target="YXGENoun8Vht93i-faF1-14" edge="1">
          <mxGeometry width="50" height="50" relative="1" as="geometry">
            <mxPoint x="320" y="780" as="sourcePoint" />
            <mxPoint x="370" y="730" as="targetPoint" />
          </mxGeometry>
        </mxCell>
        <mxCell id="YXGENoun8Vht93i-faF1-21" value="" style="endArrow=none;html=1;rounded=0;entryX=0.43;entryY=1;entryDx=0;entryDy=0;exitX=0.5;exitY=0;exitDx=0;exitDy=0;entryPerimeter=0;" parent="1" source="YXGENoun8Vht93i-faF1-16" target="YXGENoun8Vht93i-faF1-14" edge="1">
          <mxGeometry width="50" height="50" relative="1" as="geometry">
            <mxPoint x="550" y="780" as="sourcePoint" />
            <mxPoint x="600" y="730" as="targetPoint" />
          </mxGeometry>
        </mxCell>
        <mxCell id="YXGENoun8Vht93i-faF1-22" value="" style="endArrow=none;html=1;rounded=0;entryX=1;entryY=1;entryDx=0;entryDy=0;exitX=0.5;exitY=0;exitDx=0;exitDy=0;" parent="1" source="YXGENoun8Vht93i-faF1-17" target="YXGENoun8Vht93i-faF1-14" edge="1">
          <mxGeometry width="50" height="50" relative="1" as="geometry">
            <mxPoint x="780" y="760" as="sourcePoint" />
            <mxPoint x="830" y="710" as="targetPoint" />
          </mxGeometry>
        </mxCell>
        <mxCell id="YXGENoun8Vht93i-faF1-23" value="" style="endArrow=none;html=1;rounded=0;exitX=0.117;exitY=-0.012;exitDx=0;exitDy=0;exitPerimeter=0;entryX=0.75;entryY=1;entryDx=0;entryDy=0;" parent="1" source="YXGENoun8Vht93i-faF1-19" target="YXGENoun8Vht93i-faF1-14" edge="1">
          <mxGeometry width="50" height="50" relative="1" as="geometry">
            <mxPoint x="620" y="900" as="sourcePoint" />
            <mxPoint x="670" y="850" as="targetPoint" />
          </mxGeometry>
        </mxCell>
        <mxCell id="YXGENoun8Vht93i-faF1-24" value="" style="endArrow=none;html=1;rounded=0;exitX=0.789;exitY=0;exitDx=0;exitDy=0;exitPerimeter=0;entryX=0.163;entryY=1;entryDx=0;entryDy=0;entryPerimeter=0;" parent="1" source="YXGENoun8Vht93i-faF1-18" target="YXGENoun8Vht93i-faF1-14" edge="1">
          <mxGeometry width="50" height="50" relative="1" as="geometry">
            <mxPoint x="410" y="910" as="sourcePoint" />
            <mxPoint x="460" y="860" as="targetPoint" />
          </mxGeometry>
        </mxCell>
        <mxCell id="YXGENoun8Vht93i-faF1-25" value="" style="endArrow=none;html=1;rounded=0;exitX=1;exitY=0.5;exitDx=0;exitDy=0;entryX=0;entryY=0.5;entryDx=0;entryDy=0;" parent="1" source="YXGENoun8Vht93i-faF1-2" target="YXGENoun8Vht93i-faF1-14" edge="1">
          <mxGeometry width="50" height="50" relative="1" as="geometry">
            <mxPoint x="200" y="740" as="sourcePoint" />
            <mxPoint x="350" y="630" as="targetPoint" />
          </mxGeometry>
        </mxCell>
        <mxCell id="YXGENoun8Vht93i-faF1-26" value="" style="endArrow=none;html=1;rounded=0;exitX=1;exitY=0.25;exitDx=0;exitDy=0;entryX=0;entryY=0.25;entryDx=0;entryDy=0;" parent="1" source="YXGENoun8Vht93i-faF1-1" target="YXGENoun8Vht93i-faF1-3" edge="1">
          <mxGeometry width="50" height="50" relative="1" as="geometry">
            <mxPoint x="280" y="320" as="sourcePoint" />
            <mxPoint x="330" y="270" as="targetPoint" />
          </mxGeometry>
        </mxCell>
        <mxCell id="YXGENoun8Vht93i-faF1-27" value="" style="endArrow=none;html=1;rounded=0;exitX=1;exitY=0.75;exitDx=0;exitDy=0;entryX=0.12;entryY=0;entryDx=0;entryDy=0;entryPerimeter=0;" parent="1" source="YXGENoun8Vht93i-faF1-1" target="YXGENoun8Vht93i-faF1-14" edge="1">
          <mxGeometry width="50" height="50" relative="1" as="geometry">
            <mxPoint x="310" y="390" as="sourcePoint" />
            <mxPoint x="360" y="340" as="targetPoint" />
          </mxGeometry>
        </mxCell>
        <mxCell id="YXGENoun8Vht93i-faF1-29" value="&lt;p style=&quot;margin: 4px 0px 0px; text-align: center; text-decoration: underline;&quot;&gt;&lt;b&gt;JP1:Klient&lt;/b&gt;&lt;/p&gt;&lt;hr size=&quot;1&quot; style=&quot;border-style:solid;&quot;&gt;&lt;p style=&quot;margin:0px;margin-left:8px;&quot;&gt;dataUr=22-12-1993&lt;br&gt;pesel=13579246800&lt;/p&gt;&lt;p style=&quot;margin:0px;margin-left:8px;&quot;&gt;imie=Jan&lt;/p&gt;&lt;p style=&quot;margin:0px;margin-left:8px;&quot;&gt;Nazwisko=Pająk&lt;/p&gt;&lt;p style=&quot;margin:0px;margin-left:8px;&quot;&gt;eMail=janpajak@mail.pl&lt;/p&gt;&lt;p style=&quot;margin:0px;margin-left:8px;&quot;&gt;haslo=jp1993&lt;/p&gt;&lt;p style=&quot;margin:0px;margin-left:8px;&quot;&gt;login=janpajak93&lt;/p&gt;&lt;p style=&quot;margin:0px;margin-left:8px;&quot;&gt;&lt;br&gt;&lt;/p&gt;" style="verticalAlign=top;align=left;overflow=fill;html=1;whiteSpace=wrap;" parent="1" vertex="1">
          <mxGeometry x="120" y="220" width="160" height="140" as="geometry" />
        </mxCell>
        <mxCell id="YXGENoun8Vht93i-faF1-30" value="" style="endArrow=none;html=1;rounded=0;entryX=0;entryY=0.75;entryDx=0;entryDy=0;exitX=1;exitY=0.25;exitDx=0;exitDy=0;" parent="1" source="YXGENoun8Vht93i-faF1-29" target="YXGENoun8Vht93i-faF1-3" edge="1">
          <mxGeometry width="50" height="50" relative="1" as="geometry">
            <mxPoint x="320" y="370" as="sourcePoint" />
            <mxPoint x="370" y="320" as="targetPoint" />
          </mxGeometry>
        </mxCell>
        <mxCell id="YXGENoun8Vht93i-faF1-31" value="" style="endArrow=none;html=1;rounded=0;exitX=1;exitY=1;exitDx=0;exitDy=0;entryX=0;entryY=0.25;entryDx=0;entryDy=0;" parent="1" source="YXGENoun8Vht93i-faF1-29" target="YXGENoun8Vht93i-faF1-14" edge="1">
          <mxGeometry width="50" height="50" relative="1" as="geometry">
            <mxPoint x="200" y="605" as="sourcePoint" />
            <mxPoint x="390" y="640" as="targetPoint" />
          </mxGeometry>
        </mxCell>
        <mxCell id="YXGENoun8Vht93i-faF1-32" value="&lt;p style=&quot;margin: 4px 0px 0px; text-align: center; text-decoration: underline;&quot;&gt;&lt;b&gt;R1:Recepcjonista&lt;/b&gt;&lt;/p&gt;&lt;hr size=&quot;1&quot; style=&quot;border-style:solid;&quot;&gt;&lt;p style=&quot;margin:0px;margin-left:8px;&quot;&gt;dataUr=16-01-1968&lt;br&gt;pesel=01223334444&lt;/p&gt;&lt;p style=&quot;margin:0px;margin-left:8px;&quot;&gt;idPracownika=rec1&lt;/p&gt;&lt;p style=&quot;margin:0px;margin-left:8px;&quot;&gt;eMail=rece01@allin.pl&lt;/p&gt;&lt;p style=&quot;margin:0px;margin-left:8px;&quot;&gt;haslo=b512hb25g164j&lt;/p&gt;&lt;p style=&quot;margin:0px;margin-left:8px;&quot;&gt;login=rec1&lt;/p&gt;" style="verticalAlign=top;align=left;overflow=fill;html=1;whiteSpace=wrap;" parent="1" vertex="1">
          <mxGeometry x="505" y="430" width="160" height="130" as="geometry" />
        </mxCell>
        <mxCell id="YXGENoun8Vht93i-faF1-35" value="" style="endArrow=none;html=1;rounded=0;entryX=0.579;entryY=0.994;entryDx=0;entryDy=0;exitX=0.519;exitY=-0.003;exitDx=0;exitDy=0;entryPerimeter=0;exitPerimeter=0;" parent="1" source="YXGENoun8Vht93i-faF1-32" target="YXGENoun8Vht93i-faF1-3" edge="1">
          <mxGeometry width="50" height="50" relative="1" as="geometry">
            <mxPoint x="550" y="430" as="sourcePoint" />
            <mxPoint x="600" y="380" as="targetPoint" />
          </mxGeometry>
        </mxCell>
        <mxCell id="YXGENoun8Vht93i-faF1-36" value="" style="endArrow=none;html=1;rounded=0;entryX=0.5;entryY=1;entryDx=0;entryDy=0;exitX=0.583;exitY=0;exitDx=0;exitDy=0;exitPerimeter=0;" parent="1" source="YXGENoun8Vht93i-faF1-14" target="YXGENoun8Vht93i-faF1-32" edge="1">
          <mxGeometry width="50" height="50" relative="1" as="geometry">
            <mxPoint x="530" y="610" as="sourcePoint" />
            <mxPoint x="580" y="560" as="targetPoint" />
          </mxGeometry>
        </mxCell>
        <mxCell id="YXGENoun8Vht93i-faF1-40" value="&lt;p style=&quot;margin: 4px 0px 0px; text-align: center; text-decoration: underline;&quot;&gt;&lt;b&gt;:Wynik&lt;/b&gt;&lt;/p&gt;&lt;hr size=&quot;1&quot; style=&quot;border-style:solid;&quot;&gt;&lt;p style=&quot;margin:0px;margin-left:8px;&quot;&gt;czyWygrana=False&lt;br&gt;klient=AN1&lt;/p&gt;" style="verticalAlign=top;align=left;overflow=fill;html=1;whiteSpace=wrap;" parent="1" vertex="1">
          <mxGeometry x="750" y="30" width="160" height="90" as="geometry" />
        </mxCell>
        <mxCell id="YXGENoun8Vht93i-faF1-41" value="" style="endArrow=none;html=1;rounded=0;entryX=0;entryY=1;entryDx=0;entryDy=0;exitX=1;exitY=0;exitDx=0;exitDy=0;" parent="1" source="YXGENoun8Vht93i-faF1-3" target="YXGENoun8Vht93i-faF1-40" edge="1">
          <mxGeometry width="50" height="50" relative="1" as="geometry">
            <mxPoint x="640" y="210" as="sourcePoint" />
            <mxPoint x="690" y="160" as="targetPoint" />
          </mxGeometry>
        </mxCell>
        <mxCell id="YXGENoun8Vht93i-faF1-42" value="&lt;p style=&quot;margin: 4px 0px 0px; text-align: center; text-decoration: underline;&quot;&gt;&lt;b&gt;:Wynik&lt;/b&gt;&lt;/p&gt;&lt;hr size=&quot;1&quot; style=&quot;border-style:solid;&quot;&gt;&lt;p style=&quot;margin:0px;margin-left:8px;&quot;&gt;czyWygrana=True&lt;/p&gt;&lt;p style=&quot;margin:0px;margin-left:8px;&quot;&gt;iloscWygranej=3000.0&lt;/p&gt;&lt;p style=&quot;margin:0px;margin-left:8px;&quot;&gt;nrTransakcji=54628&lt;br&gt;klient=JP1&lt;/p&gt;" style="verticalAlign=top;align=left;overflow=fill;html=1;whiteSpace=wrap;" parent="1" vertex="1">
          <mxGeometry x="520" y="30" width="160" height="90" as="geometry" />
        </mxCell>
        <mxCell id="YXGENoun8Vht93i-faF1-43" value="" style="endArrow=none;html=1;rounded=0;entryX=0.5;entryY=1;entryDx=0;entryDy=0;" parent="1" target="YXGENoun8Vht93i-faF1-42" edge="1">
          <mxGeometry width="50" height="50" relative="1" as="geometry">
            <mxPoint x="600" y="210" as="sourcePoint" />
            <mxPoint x="470" y="170" as="targetPoint" />
          </mxGeometry>
        </mxCell>
        <mxCell id="YXGENoun8Vht93i-faF1-47" value="" style="endArrow=none;html=1;rounded=0;entryX=0;entryY=0.5;entryDx=0;entryDy=0;exitX=1;exitY=0.5;exitDx=0;exitDy=0;" parent="1" source="YXGENoun8Vht93i-faF1-48" target="YXGENoun8Vht93i-faF1-42" edge="1">
          <mxGeometry width="50" height="50" relative="1" as="geometry">
            <mxPoint x="410" y="75" as="sourcePoint" />
            <mxPoint x="500" y="90" as="targetPoint" />
          </mxGeometry>
        </mxCell>
        <mxCell id="YXGENoun8Vht93i-faF1-48" value="&lt;p style=&quot;margin: 4px 0px 0px; text-align: center; text-decoration: underline;&quot;&gt;&lt;b&gt;KJP1:KartaKredytowa&lt;/b&gt;&lt;/p&gt;&lt;hr size=&quot;1&quot; style=&quot;border-style:solid;&quot;&gt;&lt;p style=&quot;margin:0px;margin-left:8px;&quot;&gt;typKarty=Visa&lt;br&gt;nrKarty=1638-9715-9863-2511&lt;br&gt;dataWaznosci=06.33&lt;/p&gt;&lt;p style=&quot;margin:0px;margin-left:8px;&quot;&gt;limit:10000.0&lt;/p&gt;" style="verticalAlign=top;align=left;overflow=fill;html=1;whiteSpace=wrap;" parent="1" vertex="1">
          <mxGeometry x="40" y="50" width="180" height="100" as="geometry" />
        </mxCell>
        <mxCell id="YXGENoun8Vht93i-faF1-49" value="" style="endArrow=none;html=1;rounded=0;exitX=0.331;exitY=-0.003;exitDx=0;exitDy=0;entryX=0.75;entryY=1;entryDx=0;entryDy=0;exitPerimeter=0;" parent="1" source="YXGENoun8Vht93i-faF1-29" target="YXGENoun8Vht93i-faF1-48" edge="1">
          <mxGeometry width="50" height="50" relative="1" as="geometry">
            <mxPoint x="220" y="200" as="sourcePoint" />
            <mxPoint x="270" y="150" as="targetPoint" />
          </mxGeometry>
        </mxCell>
      </root>
    </mxGraphModel>
  </diagram>
</mxfile>
